# Blender 3.5.1
# www.blender.org
o Trunk_lambert1_0
v 0.527673 0.000256 -0.011316
v 0.563001 0.000256 -0.002760
v 0.505840 0.000256 0.011034
v 0.484007 0.000256 -0.011315
v 0.448679 0.000256 -0.002760
v 0.435186 0.000256 0.011083
v 0.448679 0.000256 0.024926
v 0.484007 0.000256 0.033482
v 0.527673 0.000256 0.033482
v 0.563001 0.000256 0.024926
v 0.576494 0.000256 0.011083
v 0.532839 0.706661 0.014721
v 0.526126 0.706661 0.013096
v 0.524235 0.742599 0.017352
v 0.517827 0.706661 0.013096
v 0.511114 0.706661 0.014721
v 0.508550 0.706661 0.017352
v 0.511115 0.706661 0.019983
v 0.517827 0.706661 0.021609
v 0.526126 0.706661 0.021609
v 0.532839 0.706661 0.019983
v 0.535403 0.706661 0.017352
v 0.563001 0.000256 -0.002760
v 0.527673 0.000256 -0.011316
v 0.521347 0.176857 -0.003153
v 0.551168 0.176857 0.004069
v 0.484007 0.000256 -0.011315
v 0.484485 0.176857 0.001890
v 0.448679 0.000256 -0.002760
v 0.454664 0.176857 0.009112
v 0.435186 0.000256 0.011083
v 0.443273 0.176857 0.020798
v 0.448679 0.000256 0.024926
v 0.454697 0.176857 0.032484
v 0.484007 0.000256 0.033482
v 0.484518 0.176857 0.039706
v 0.527673 0.000256 0.033482
v 0.521380 0.176857 0.039706
v 0.563001 0.000256 0.024926
v 0.551201 0.176857 0.032484
v 0.576494 0.000256 0.011083
v 0.562559 0.176857 0.015755
v 0.563001 0.000256 -0.002760
v 0.551168 0.176857 0.004069
v 0.522353 0.530060 0.003181
v 0.506216 0.530060 -0.000727
v 0.526126 0.706661 0.013096
v 0.532839 0.706661 0.014721
v 0.528517 0.530060 0.009505
v 0.522353 0.530060 0.003181
v 0.532839 0.706661 0.014721
v 0.535403 0.706661 0.017352
v 0.522353 0.530060 0.015828
v 0.532839 0.706661 0.019983
v 0.506216 0.530060 0.019736
v 0.526126 0.706661 0.021609
v 0.486270 0.530060 0.019736
v 0.517827 0.706661 0.021609
v 0.470138 0.530060 0.015827
v 0.511115 0.706661 0.019983
v 0.463976 0.530060 0.009505
v 0.508550 0.706661 0.017352
v 0.470134 0.530060 0.003182
v 0.511114 0.706661 0.014721
v 0.486269 0.530060 -0.000727
v 0.517827 0.706661 0.013096
v 0.554382 0.353458 0.002397
v 0.530257 0.353458 -0.003446
v 0.563615 0.353458 0.011850
v 0.554382 0.353458 0.002397
v 0.554400 0.353458 0.021304
v 0.530283 0.353458 0.027140
v 0.500465 0.353458 0.027138
v 0.476346 0.353458 0.021300
v 0.467135 0.353458 0.011850
v 0.476317 0.353458 0.002398
v 0.500438 0.353458 -0.003446
vn -0.0000 -1.0000 -0.0000
vn 0.4413 0.0395 -0.8965
vn 0.1182 0.0672 -0.9907
vn 0.0254 0.9997 -0.0000
vn -0.1016 0.0976 -0.9900
vn -0.4147 0.1579 -0.8961
vn -0.9661 0.2499 0.0640
vn -0.3930 0.0767 0.9163
vn -0.0966 0.0134 0.9952
vn 0.1138 -0.0155 0.9934
vn 0.4136 -0.0345 0.9098
vn 0.9972 -0.0233 0.0708
vn 0.4087 0.0626 -0.9105
vn 0.0726 0.0572 -0.9957
vn 0.0677 0.0265 -0.9974
vn 0.4215 0.0275 -0.9064
vn -0.1378 0.0655 -0.9883
vn -0.1502 0.0323 -0.9881
vn -0.3967 0.0749 -0.9149
vn -0.4373 0.0506 -0.8979
vn -0.9946 0.0506 -0.0902
vn -0.9924 0.0841 0.0894
vn -0.4338 -0.0238 0.9007
vn -0.4025 0.0335 0.9148
vn -0.1100 -0.0347 0.9933
vn -0.1069 0.0167 0.9941
vn 0.1121 -0.0310 0.9932
vn 0.1016 0.0122 0.9947
vn 0.4809 -0.0011 0.8768
vn 0.4371 0.0175 0.8992
vn 0.9965 0.0731 -0.0416
vn 0.9986 0.0388 0.0353
vn 0.4088 0.0626 -0.9105
vn 0.3991 0.0628 -0.9147
vn 0.0984 0.0423 -0.9942
vn 0.9926 0.1144 -0.0401
vn 0.4149 0.0500 0.9085
vn 0.1015 0.0278 0.9944
vn -0.1170 0.0247 0.9928
vn -0.4348 0.0371 0.8998
vn -0.9961 0.0780 -0.0404
vn -0.4184 0.0478 -0.9070
vn -0.4147 0.1579 -0.8962
vn -0.1140 0.0383 -0.9927
vn 0.4214 0.0247 -0.9065
vn 0.0897 0.0062 -0.9960
vn 0.9970 0.0771 -0.0122
vn 0.4626 0.0681 0.8840
vn 0.1143 0.0616 0.9915
vn -0.1035 0.0609 0.9928
vn -0.4166 0.0689 0.9065
vn -0.9970 0.0680 -0.0367
vn -0.4030 0.0035 -0.9152
vn -0.1254 -0.0024 -0.9921
vt 0.548284 0.992353
vt 0.626409 0.935591
vt 0.500000 0.850000
vt 0.451716 0.992353
vt 0.373591 0.935591
vt 0.343750 0.843750
vt 0.373591 0.751909
vt 0.451716 0.695147
vt 0.548284 0.695147
vt 0.626409 0.751909
vt 0.656250 0.843750
vt 0.626409 0.064409
vt 0.548284 0.007647
vt 0.500000 0.162500
vt 0.451716 0.007647
vt 0.373591 0.064409
vt 0.343750 0.156250
vt 0.373591 0.248091
vt 0.451716 0.304853
vt 0.548284 0.304853
vt 0.626409 0.248091
vt 0.656250 0.156250
vt 0.375000 0.687500
vt 0.400000 0.687500
vt 0.400000 0.593515
vt 0.375000 0.593515
vt 0.425000 0.687500
vt 0.425000 0.593515
vt 0.450000 0.687500
vt 0.450000 0.593515
vt 0.475000 0.687500
vt 0.475000 0.593515
vt 0.500000 0.687500
vt 0.500000 0.593515
vt 0.525000 0.687500
vt 0.525000 0.593515
vt 0.550000 0.687500
vt 0.550000 0.593515
vt 0.575000 0.687500
vt 0.575000 0.593515
vt 0.600000 0.687500
vt 0.600000 0.593515
vt 0.625000 0.687500
vt 0.625000 0.593515
vt 0.375000 0.405545
vt 0.400000 0.405545
vt 0.400000 0.311560
vt 0.375000 0.311560
vt 0.600000 0.405545
vt 0.625000 0.405545
vt 0.625000 0.311560
vt 0.600000 0.311560
vt 0.575000 0.405545
vt 0.575000 0.311560
vt 0.550000 0.405545
vt 0.550000 0.311560
vt 0.525000 0.405545
vt 0.525000 0.311560
vt 0.500000 0.405545
vt 0.500000 0.311560
vt 0.475000 0.405545
vt 0.475000 0.311560
vt 0.450000 0.405545
vt 0.450000 0.311560
vt 0.425000 0.405545
vt 0.425000 0.311560
vt 0.375000 0.499530
vt 0.400000 0.499530
vt 0.600000 0.499530
vt 0.625000 0.499530
vt 0.575000 0.499530
vt 0.550000 0.499530
vt 0.525000 0.499530
vt 0.500000 0.499530
vt 0.475000 0.499530
vt 0.450000 0.499530
vt 0.425000 0.499530
s 0
f 1/1/1 2/2/1 3/3/1
f 4/4/1 1/1/1 3/3/1
f 5/5/1 4/4/1 3/3/1
f 6/6/1 5/5/1 3/3/1
f 7/7/1 6/6/1 3/3/1
f 8/8/1 7/7/1 3/3/1
f 9/9/1 8/8/1 3/3/1
f 10/10/1 9/9/1 3/3/1
f 11/11/1 10/10/1 3/3/1
f 2/2/1 11/11/1 3/3/1
s 1
f 12/12/2 13/13/3 14/14/4
f 13/13/3 15/15/5 14/14/4
f 15/15/5 16/16/6 14/14/4
f 16/16/6 17/17/7 14/14/4
f 17/17/7 18/18/8 14/14/4
f 18/18/8 19/19/9 14/14/4
f 19/19/9 20/20/10 14/14/4
f 20/20/10 21/21/11 14/14/4
f 21/21/11 22/22/12 14/14/4
f 22/22/12 12/12/2 14/14/4
f 23/23/13 24/24/14 25/25/15
f 23/23/13 25/25/15 26/26/16
f 24/24/14 27/27/17 28/28/18
f 24/24/14 28/28/18 25/25/15
f 27/27/17 29/29/19 30/30/20
f 27/27/17 30/30/20 28/28/18
f 29/29/19 31/31/21 32/32/22
f 29/29/19 32/32/22 30/30/20
f 31/31/21 33/33/23 34/34/24
f 31/31/21 34/34/24 32/32/22
f 33/33/23 35/35/25 36/36/26
f 33/33/23 36/36/26 34/34/24
f 35/35/25 37/37/27 38/38/28
f 35/35/25 38/38/28 36/36/26
f 37/37/27 39/39/29 40/40/30
f 37/37/27 40/40/30 38/38/28
f 39/39/29 41/41/31 42/42/32
f 39/39/29 42/42/32 40/40/30
f 41/41/31 43/43/33 44/44/16
f 41/41/31 44/44/16 42/42/32
f 45/45/34 46/46/35 47/47/3
f 45/45/34 47/47/3 48/48/2
f 49/49/36 50/50/34 51/51/2
f 49/49/36 51/51/2 52/52/12
f 53/53/37 49/49/36 52/52/12
f 53/53/37 52/52/12 54/54/11
f 55/55/38 53/53/37 54/54/11
f 55/55/38 54/54/11 56/56/10
f 57/57/39 55/55/38 56/56/10
f 57/57/39 56/56/10 58/58/9
f 59/59/40 57/57/39 58/58/9
f 59/59/40 58/58/9 60/60/8
f 61/61/41 59/59/40 60/60/8
f 61/61/41 60/60/8 62/62/7
f 63/63/42 61/61/41 62/62/7
f 63/63/42 62/62/7 64/64/43
f 65/65/44 63/63/42 64/64/43
f 65/65/44 64/64/43 66/66/5
f 46/46/35 65/65/44 66/66/5
f 46/46/35 66/66/5 47/47/3
f 67/67/45 68/68/46 46/46/35
f 67/67/45 46/46/35 45/45/34
f 69/69/47 70/70/45 50/50/34
f 69/69/47 50/50/34 49/49/36
f 71/71/48 69/69/47 49/49/36
f 71/71/48 49/49/36 53/53/37
f 72/72/49 71/71/48 53/53/37
f 72/72/49 53/53/37 55/55/38
f 73/73/50 72/72/49 55/55/38
f 73/73/50 55/55/38 57/57/39
f 74/74/51 73/73/50 57/57/39
f 74/74/51 57/57/39 59/59/40
f 75/75/52 74/74/51 59/59/40
f 75/75/52 59/59/40 61/61/41
f 76/76/53 75/75/52 61/61/41
f 76/76/53 61/61/41 63/63/42
f 77/77/54 76/76/53 63/63/42
f 77/77/54 63/63/42 65/65/44
f 68/68/46 77/77/54 65/65/44
f 68/68/46 65/65/44 46/46/35
f 26/26/16 25/25/15 68/68/46
f 26/26/16 68/68/46 67/67/45
f 42/42/32 44/44/16 70/70/45
f 42/42/32 70/70/45 69/69/47
f 40/40/30 42/42/32 69/69/47
f 40/40/30 69/69/47 71/71/48
f 38/38/28 40/40/30 71/71/48
f 38/38/28 71/71/48 72/72/49
f 36/36/26 38/38/28 72/72/49
f 36/36/26 72/72/49 73/73/50
f 34/34/24 36/36/26 73/73/50
f 34/34/24 73/73/50 74/74/51
f 32/32/22 34/34/24 74/74/51
f 32/32/22 74/74/51 75/75/52
f 30/30/20 32/32/22 75/75/52
f 30/30/20 75/75/52 76/76/53
f 28/28/18 30/30/20 76/76/53
f 28/28/18 76/76/53 77/77/54
f 25/25/15 28/28/18 77/77/54
f 25/25/15 77/77/54 68/68/46
